nColumns=19
nRows=60
DataType=double
version=3
OpenSimVersion=4.1
endheader
time	ground_force_1_vx	ground_force_1_vy	ground_force_1_vz	ground_force_1_px	ground_force_1_py	ground_force_1_pz	ground_force_1_mx	ground_force_1_my	ground_force_1_mz	ground_force_2_vx	ground_force_2_vy	ground_force_2_vz	ground_force_2_px	ground_force_2_py	ground_force_2_pz	ground_force_2_mx	ground_force_2_my	ground_force_2_mz
2.52	142.818	1417.23	-53.6483	0.733972	0	-0.282368	0	-6.71059	0	0	0	0	-0.000933347	0	-0.000642644	0	0	0
2.53	199.556	1245.45	-45.1131	0.689174	0	-0.282736	0	-7.46881	0	0	0	0	-0.000933347	0	-0.000642644	0	0	0
2.54	228.103	1034.58	-29.3152	0.646587	0	-0.283307	0	-7.9257	0	0	0	0	-0.000933347	0	-0.000642644	0	0	0
2.55	226.974	801.197	-5.71483	0.606095	0	-0.283731	0	-7.36782	0	0	0	0	-0.000933347	0	-0.000642642	0	0	0
2.56	200.13	566.951	9.41956	0.56554	0	-0.28362	0	-5.51298	0	0	0	0	-0.000933347	0	-0.000642639	0	0	0
2.57	158.608	355.322	10.551	0.519743	0	-0.282093	0	-3.25059	0	0	0	0	-0.000933348	0	-0.000642634	0	0	0
2.58	110.989	186.896	1.52766	0.455976	0	-0.275205	0	-2.06497	0	0	0	0	-0.000933348	0	-0.000642628	0	0	0
2.59	62.5356	80.0557	-5.57904	0.321328	0	-0.231655	0	-2.29231	0	0	0	0	-0.000933348	0	-0.000642621	0	0	0
2.6	0	0	0	-0.000933471	0	-0.000642729	0	0	0	0	0	0	-0.000933349	0	-0.000642613	0	0	0
2.61	0	0	0	-0.000933472	0	-0.000642719	0	0	0	0	0	0	-0.000933349	0	-0.000642604	0	0	0
2.62	0	0	0	-0.000933472	0	-0.000642708	0	0	0	0	0	0	-0.000933349	0	-0.000642593	0	0	0
2.63	0	0	0	-0.000933472	0	-0.000642696	0	0	0	0	0	0	-0.00093335	0	-0.000642581	0	0	0
2.64	0	0	0	-0.000933473	0	-0.000642683	0	0	0	0	0	0	-0.000933351	0	-0.000642567	0	0	0
2.65	0	0	0	-0.000933473	0	-0.000642668	0	0	0	0	0	0	-0.000933351	0	-0.000642553	0	0	0
2.66	0	0	0	-0.000933474	0	-0.000642652	0	0	0	0	0	0	-0.000933352	0	-0.000642537	0	0	0
2.67	0	0	0	-0.000933475	0	-0.000642635	0	0	0	0	0	0	-0.000933353	0	-0.000642519	0	0	0
2.68	0	0	0	-0.000933475	0	-0.000642616	0	0	0	-17.0825	50.9276	-9.94726	0.944111	0	-0.384119	-0	1.64917	-0
2.69	0	0	0	-0.000933476	0	-0.000642596	0	0	0	-38.4371	158.708	-18.6195	1.11067	0	-0.382476	0	-1.98321	0
2.7	0	0	0	-0.000933477	0	-0.000642575	0	0	0	-59.1326	383.061	-13.544	1.09754	0	-0.377701	0	-3.60505	0
2.71	0	0	0	-0.000933478	0	-0.000642553	0	0	0	-78.6893	698.488	14.1744	1.08916	0	-0.375431	0	-2.24282	0
2.72	0	0	0	-0.000933479	0	-0.000642529	0	0	0	-128.72	978.228	52.3427	1.08025	0	-0.374885	0	-0.291668	0
2.73	0	0	0	-0.000933479	0	-0.000642504	0	0	0	-202.28	1122.04	58.7964	1.06835	0	-0.375805	-0	0.024613	-0
2.74	0	0	0	-0.00093348	0	-0.000642478	0	0	0	-261.222	1195.75	15.2729	1.04959	0	-0.377556	0	-1.14077	0
2.75	0	0	0	-0.000933481	0	-0.000642451	0	0	0	-281.353	1302.73	-4.40449	1.02127	0	-0.378929	0	-2.15778	0
2.76	0	0	0	-0.000933482	0	-0.000642422	0	0	0	-261.794	1451.52	43.3931	0.985153	0	-0.379289	0	-2.02084	0
2.77	0	0	0	-0.000933484	0	-0.000642392	0	0	0	-216.788	1580.54	84.7473	0.945311	0	-0.379209	0	-1.05881	0
2.78	0	0	0	-0.000933485	0	-0.000642361	0	0	0	-153.481	1643.36	67.2465	0.903917	0	-0.379232	0	-0.033978	0
2.79	0	0	0	-0.000933486	0	-0.000642329	0	0	0	-75.1822	1645.74	39.3868	0.861073	0	-0.379066	-0	0.711342	-0
2.8	0	0	0	-0.000933487	0	-0.000642296	0	0	0	10.8931	1601.77	46.1364	0.816718	0	-0.37814	-0	1.21513	-0
2.81	0	0	0	-0.000933488	0	-0.000642261	0	0	0	93.7179	1505.72	51.6588	0.771442	0	-0.376256	-0	1.52116	-0
2.82	0	0	0	-0.00093349	0	-0.000642225	0	0	0	164.084	1352.87	23.9458	0.726163	0	-0.373544	-0	1.5455	-0
2.83	0	0	0	-0.000933491	0	-0.000642188	0	0	0	212.295	1152.25	-8.76572	0.68182	0	-0.370121	-0	1.23856	-0
2.84	0	0	0	-0.000933492	0	-0.00064215	0	0	0	232.904	925.908	-20.0864	0.639303	0	-0.366036	-0	0.854373	-0
2.85	0	0	0	-0.000933494	0	-0.00064211	0	0	0	222.045	696.624	-21.1402	0.59888	0	-0.361557	-0	0.907628	-0
2.86	0	0	0	-0.000933495	0	-0.000642069	0	0	0	187.314	477.427	-24.2585	0.558373	0	-0.357294	-0	1.56235	-0
2.87	0	0	0	-0.000933497	0	-0.000642027	0	0	0	143.181	283.244	-26.0452	0.509403	0	-0.353646	-0	2.10651	-0
2.88	0	0	0	-0.000933498	0	-0.000641984	0	0	0	96.112	138.947	-20.9392	0.424979	0	-0.348163	-0	1.54131	-0
2.89	0	0	0	-0.0009335	0	-0.00064194	0	0	0	50.0669	58.3128	-8.53491	0.131727	0	-0.302356	0	-0.055405	0
2.9	0	0	0	-0.000933502	0	-0.000641895	0	0	0	0	0	0	-0.000933385	0	-0.000641785	0	0	0
2.91	0	0	0	-0.000933503	0	-0.000641848	0	0	0	0	0	0	-0.000933387	0	-0.000641739	0	0	0
2.92	0	0	0	-0.000933505	0	-0.000641801	0	0	0	0	0	0	-0.00093339	0	-0.000641691	0	0	0
2.93	0	0	0	-0.000933507	0	-0.000641752	0	0	0	0	0	0	-0.000933392	0	-0.000641643	0	0	0
2.94	0	0	0	-0.000933509	0	-0.000641702	0	0	0	0	0	0	-0.000933394	0	-0.000641593	0	0	0
2.95	0	0	0	-0.000933511	0	-0.000641651	0	0	0	0	0	0	-0.000933396	0	-0.000641543	0	0	0
2.96	0	0	0	-0.000933513	0	-0.000641599	0	0	0	0	0	0	-0.000933398	0	-0.000641491	0	0	0
2.97	0	0	0	-0.000933515	0	-0.000641546	0	0	0	0	0	0	-0.000933401	0	-0.000641438	0	0	0
2.98	-20.9771	100.052	-13.8181	1.16277	0	-0.267685	-0	0.816834	-0	0	0	0	-0.000933403	0	-0.000641384	0	0	0
2.99	-44.4977	284.762	-26.2384	1.09293	0	-0.300828	-0	0.037629	-0	0	0	0	-0.000933406	0	-0.000641329	0	0	0
3	-73.2308	610.166	-36.116	1.07743	0	-0.303823	-0	0.907137	-0	0	0	0	-0.000933408	0	-0.000641273	0	0	0
3.01	-119.699	983.785	-14.6356	1.06627	0	-0.304445	-0	4.0244	-0	0	0	0	-0.000933411	0	-0.000641216	0	0	0
3.02	-186.848	1238.27	33.8261	1.05413	0	-0.3044	-0	6.96731	-0	0	0	0	-0.000933413	0	-0.000641157	0	0	0
3.03	-248.27	1355.5	34.7032	1.0367	0	-0.304018	-0	7.49554	-0	0	0	0	-0.000933416	0	-0.000641098	0	0	0
3.04	-270.874	1441.13	-24.0838	1.01027	0	-0.303128	-0	5.67189	-0	0	0	0	-0.000933419	0	-0.000641038	0	0	0
3.05	-246.548	1544.35	-50.6041	0.974641	0	-0.301471	-0	3.11859	-0	0	0	0	-0.000933421	0	-0.000640977	0	0	0
3.06	-196.125	1639.23	-30.0956	0.933901	0	-0.299364	-0	1.15569	-0	0	0	0	-0.000933424	0	-0.000640914	0	0	0
3.07	-129.469	1687.84	-39.3663	0.892363	0	-0.297552	-0	0.005941	-0	0	0	0	-0.000933427	0	-0.000640851	0	0	0
3.08	-57.3444	1678.91	-80.932	0.851245	0	-0.296463	0	-0.752556	0	0	0	0	-0.00093343	0	-0.000640786	0	0	0
3.09	13.5072	1623.42	-84.7675	0.809328	0	-0.296061	0	-1.54838	0	0	0	0	-0.000933433	0	-0.000640721	0	0	0
3.1	86.5824	1523.55	-50.5623	0.765211	0	-0.296252	0	-2.56055	0	0	0	0	-0.000933436	0	-0.000640655	0	0	0
3.11	158.638	1369.08	-30.9087	0.718935	0	-0.296998	0	-3.72945	0	0	0	0	-0.000933439	0	-0.000640588	0	0	0
